<?xml version="1.0" encoding="UTF-8"?>
<!DOCTYPE svg PUBLIC "-//W3C//DTD SVG 1.0//EN" "http://www.w3.org/TR/2001/REC-SVG-20010904/DTD/svg10.dtd">
<!-- Creator: CorelDRAW X8 -->
<svg xmlns="http://www.w3.org/2000/svg" xml:space="preserve" width="135.55mm" height="34.7978mm" version="1.0" shape-rendering="geometricPrecision" text-rendering="geometricPrecision" image-rendering="optimizeQuality" fill-rule="evenodd" clip-rule="evenodd"
viewBox="0 0 6824 1752"
 xmlns:xlink="http://www.w3.org/1999/xlink">
 <g id="Camada_x0020_1">
  <metadata id="CorelCorpID_0Corel-Layer"/>
  <path fill="#FEFEFE" fill-rule="nonzero" d="M708 855c-55,0 -102,-21 -140,-63 -38,-42 -57,-95 -57,-160 0,-81 32,-162 96,-243 11,-14 20,-21 25,-21 6,0 8,3 8,9 0,15 -7,28 -22,37 -52,69 -78,138 -78,209 0,51 14,93 42,128 28,34 63,51 104,51 91,0 177,-72 257,-216 42,-75 63,-161 63,-260 0,-98 -22,-170 -67,-218 -37,-43 -87,-64 -150,-64 -91,0 -182,37 -274,112 -113,91 -215,231 -306,422 -91,191 -137,374 -137,551 0,139 29,247 86,323 58,76 129,114 214,114 98,0 193,-40 286,-118 72,-61 133,-139 185,-234 15,-28 27,-42 35,-42 6,0 8,8 8,25 0,16 -5,32 -15,49 -49,86 -120,169 -213,248 -113,100 -228,150 -343,150 -116,0 -202,-63 -258,-189 -38,-83 -57,-181 -57,-296 0,-51 4,-105 11,-164 25,-196 91,-387 197,-572 77,-133 168,-237 274,-312 106,-74 206,-111 300,-111 50,0 94,10 131,30 101,52 151,157 151,315 0,96 -17,180 -51,250 -85,174 -187,260 -305,260zm720 -48l20 -7c10,0 19,7 29,21 9,13 14,24 14,32 0,8 -29,81 -87,222 -57,140 -86,238 -86,293 0,4 1,9 2,14 4,35 15,52 30,52 48,0 136,-131 264,-395 3,-6 6,-9 10,-9 4,0 6,6 6,17 0,12 -5,27 -13,45 -119,262 -209,393 -271,393 -8,0 -16,-2 -24,-7 -40,-26 -61,-76 -61,-152 0,-26 2,-52 6,-78l-86 138c-55,80 -94,120 -119,120 -25,0 -48,-13 -70,-39 -25,-31 -38,-72 -38,-122 0,-112 48,-246 142,-401 95,-156 181,-234 260,-234 30,0 51,18 61,53 3,12 5,23 7,31 2,9 3,13 4,13zm-415 565c0,56 11,83 34,83 54,0 127,-97 220,-292l147 -335c-7,-22 -19,-33 -36,-33 -56,0 -131,73 -225,218 -94,144 -140,264 -140,359zm630 152c-10,0 -19,-2 -27,-7 -60,-27 -89,-83 -89,-165 0,-108 40,-232 122,-373 81,-141 155,-211 219,-211 22,0 39,9 53,29 13,19 20,45 20,78 0,33 -6,67 -18,103 -12,36 -30,54 -55,54 -24,0 -36,-12 -36,-37 0,-16 7,-42 19,-77 13,-34 19,-52 19,-55 0,-2 -2,-3 -4,-3 -26,4 -62,35 -107,92 -45,56 -75,104 -92,142l-54 131c-9,25 -16,54 -20,88 -4,33 -7,59 -7,76 0,16 6,36 18,57 11,21 28,32 49,32 46,0 104,-45 172,-134 69,-90 122,-175 159,-257 4,-9 10,-13 16,-13 7,0 10,3 10,9 0,6 -2,14 -7,23 -51,112 -112,209 -182,293 -71,83 -130,125 -178,125zm751 -717l19 -7c10,0 20,7 29,21 9,13 14,24 14,32 0,8 -29,81 -86,222 -57,140 -86,238 -86,293 0,4 0,9 1,14 5,35 15,52 31,52 48,0 136,-131 264,-395 2,-6 6,-9 9,-9 4,0 6,6 6,17 0,12 -4,27 -13,45 -118,262 -208,393 -270,393 -9,0 -17,-2 -24,-7 -41,-26 -61,-76 -61,-152 0,-26 2,-52 5,-78l-86 138c-54,80 -94,120 -118,120 -25,0 -48,-13 -71,-39 -25,-31 -37,-72 -37,-122 0,-112 47,-246 142,-401 94,-156 181,-234 259,-234 31,0 51,18 61,53 3,12 6,23 7,31 2,9 4,13 5,13zm-416 565c0,56 12,83 35,83 54,0 127,-97 219,-292l148 -335c-8,-22 -20,-33 -36,-33 -57,0 -132,73 -225,218 -94,144 -141,264 -141,359zm914 136c-4,2 -14,2 -30,2 -15,0 -30,-10 -45,-30 -16,-19 -23,-45 -23,-77 0,-31 3,-66 10,-104 7,-38 12,-68 15,-87 -107,205 -190,308 -250,308 -38,0 -59,-40 -63,-118 0,-6 0,-11 0,-16 0,-66 24,-155 72,-266 -27,39 -54,85 -82,137 -3,7 -8,10 -14,10 -3,0 -5,-4 -5,-12 0,-7 4,-21 12,-39l192 -372c24,-46 49,-69 74,-69 25,0 37,14 37,41 0,11 -3,21 -8,30 -37,57 -84,151 -140,283 -56,132 -84,229 -84,292 0,27 6,41 17,41 39,0 95,-64 169,-191 26,-43 75,-137 145,-284 70,-146 117,-219 139,-219 33,0 50,21 50,64 0,16 -20,60 -59,134 -52,105 -93,191 -120,258 -28,67 -42,121 -42,162 0,42 7,62 21,62 6,0 14,-3 22,-9 64,-46 140,-153 229,-322 6,-10 11,-16 17,-16 5,0 8,5 8,15 0,10 -3,21 -9,33 -40,77 -87,154 -141,231 -54,78 -91,120 -114,128zm1271 -634c-46,0 -89,-7 -129,-19 13,68 40,220 82,458 13,69 33,138 61,209 38,90 73,135 106,135 39,0 71,-65 97,-195 5,-31 10,-46 15,-46 5,0 8,9 11,27 2,17 3,29 3,35 0,38 -13,88 -39,147 -34,85 -71,127 -112,127 -41,0 -78,-34 -113,-101 -34,-68 -68,-191 -100,-369 -33,-179 -50,-293 -50,-342 0,-7 1,-14 2,-18 -111,244 -191,404 -239,483 -108,173 -217,259 -329,259 -79,0 -119,-49 -119,-147 0,-49 10,-103 28,-162 19,-59 41,-111 68,-155 27,-44 51,-67 71,-67 4,0 6,2 6,5 0,8 -12,27 -35,57 -23,31 -45,74 -67,130 -21,56 -32,107 -32,153 0,81 33,122 99,122 123,0 293,-239 508,-717 12,-26 23,-45 31,-55l-22 -14c-12,7 -22,11 -29,11 -20,0 -30,-13 -30,-39 0,-35 15,-58 43,-69 4,-1 7,-2 10,-2 17,0 36,14 59,41 81,-150 123,-226 125,-230 67,-115 113,-172 136,-172 24,0 36,17 36,51 0,15 -2,29 -6,43 -5,14 -9,21 -15,21 -6,3 -8,-2 -8,-14 0,-6 2,-15 8,-27 1,-22 -3,-33 -13,-33 -29,0 -101,131 -215,391 28,3 51,5 70,5 214,0 349,-92 402,-276 12,-40 17,-77 17,-110 0,-68 -18,-126 -55,-175 -60,-80 -156,-120 -289,-120 -134,0 -270,56 -409,168 -168,137 -253,297 -253,481 0,59 23,89 68,89 46,0 94,-27 145,-82 51,-56 85,-110 103,-164 6,-20 12,-30 18,-30 6,0 8,7 5,19 -17,86 -56,159 -117,219 -61,61 -124,91 -190,91 -65,0 -98,-34 -98,-103 0,-5 0,-10 0,-16 14,-201 88,-372 223,-512 134,-140 297,-210 487,-210 176,0 302,50 376,151 44,62 67,134 67,217 0,35 -5,73 -16,115 -28,111 -87,195 -176,249 -89,54 -182,82 -281,82zm713 -67l19 -7c11,0 20,7 30,21 9,13 14,24 14,32 0,8 -29,81 -87,222 -57,140 -86,238 -86,293 0,4 1,9 2,14 4,35 14,52 30,52 48,0 136,-131 264,-395 3,-6 6,-9 10,-9 4,0 5,6 5,17 0,12 -4,27 -12,45 -119,262 -209,393 -271,393 -8,0 -16,-2 -24,-7 -40,-26 -61,-76 -61,-152 0,-26 2,-52 6,-78l-86 138c-55,80 -94,120 -119,120 -25,0 -48,-13 -70,-39 -25,-31 -38,-72 -38,-122 0,-112 48,-246 142,-401 94,-156 181,-234 260,-234 30,0 51,18 61,53 3,12 5,23 7,31 2,9 3,13 4,13zm-415 565c0,56 11,83 34,83 54,0 127,-97 220,-292l147 -335c-7,-22 -19,-33 -36,-33 -56,0 -131,73 -225,218 -94,144 -140,264 -140,359zm1189 95c-63,0 -95,-49 -95,-145 0,-55 15,-131 45,-227 29,-95 60,-176 93,-242 -58,46 -124,129 -199,249 -75,121 -127,247 -157,378 -4,13 -12,19 -23,19 -23,0 -34,-21 -34,-62 10,-84 30,-181 63,-290 10,-35 40,-138 90,-308 -72,78 -133,162 -184,252 -50,89 -97,180 -140,270 -43,90 -68,136 -73,136 -12,0 -23,-10 -31,-28 -9,-18 -14,-37 -14,-55 0,-28 24,-129 73,-304l-84 145c-20,34 -33,51 -38,51 -5,0 -8,-5 -8,-15 0,-10 4,-21 11,-34 35,-56 65,-113 92,-170 27,-56 71,-157 134,-303 10,-23 24,-35 43,-35 18,0 27,15 27,44 0,11 -24,86 -73,224 -49,139 -77,226 -82,261 38,-69 95,-162 171,-278 114,-175 189,-262 225,-262 11,0 21,5 30,16 10,11 14,23 14,36 0,13 -18,71 -54,173 -35,106 -55,169 -58,189 102,-143 154,-215 154,-216 87,-112 149,-168 187,-168 12,0 22,6 32,17 9,12 14,25 14,40 0,3 -30,68 -90,195 -60,126 -94,230 -101,311 -2,28 1,48 9,62 9,14 24,21 45,21 22,0 54,-25 96,-75 42,-50 85,-117 129,-201 16,-31 28,-46 34,-46 6,0 9,4 9,11 0,11 -4,23 -13,37 -45,91 -94,168 -146,231 -53,64 -94,96 -123,96zm575 -460c0,54 -31,143 -93,269 -73,149 -136,223 -188,223l-22 0c-24,0 -43,-21 -57,-62 -11,-29 -17,-62 -17,-97 0,-92 41,-221 122,-387 81,-166 147,-250 197,-250 47,0 70,42 70,125 0,21 -2,49 -7,82 1,5 10,7 27,7 17,0 42,-14 76,-43 -1,26 -37,63 -109,112 0,6 1,13 1,21zm-90 -120c-32,0 -77,62 -134,184 -58,123 -87,213 -87,272 0,58 11,87 33,87 40,0 90,-60 152,-179 61,-120 91,-206 91,-258 -15,-14 -33,-49 -55,-106zm373 573c-27,26 -60,39 -99,39 -39,0 -69,-22 -90,-65 -21,-42 -39,-111 -54,-204 -16,27 -28,41 -35,41 -4,0 -6,-5 -6,-16 0,-11 2,-20 6,-27 31,-63 83,-154 156,-272l175 -271c50,-78 80,-117 89,-117 30,0 44,18 44,55 0,18 -4,36 -13,54 -9,18 -15,31 -19,41 -4,10 -9,20 -13,29 -17,48 -34,146 -51,294 -17,149 -30,252 -40,311 77,-2 156,-85 238,-249 9,-15 16,-23 21,-23 4,0 7,5 7,15 0,10 -4,24 -13,41 -54,104 -104,177 -150,218 -28,23 -64,42 -108,58l-45 48zm-187 -255c0,52 10,94 31,127 21,33 44,50 70,50 26,0 46,-9 60,-26 18,-17 37,-87 55,-211 18,-124 29,-234 32,-329l6 -78c-51,63 -105,144 -163,244 -58,99 -88,165 -90,197 -1,10 -1,18 -1,26z"/>
 </g>
</svg>
